<svg width="33" height="32" viewBox="0 0 33 32" fill="none" xmlns="http://www.w3.org/2000/svg">
<path d="M29.7567 32L18.5567 20.8C17.6678 21.5111 16.6456 22.0741 15.4901 22.4889C14.3345 22.9037 13.1049 23.1111 11.8012 23.1111C8.57153 23.1111 5.8385 21.9923 3.60205 19.7547C1.36561 17.517 0.246792 14.784 0.245606 11.5556C0.244421 8.32711 1.36324 5.59407 3.60205 3.35644C5.84087 1.11882 8.5739 0 11.8012 0C15.0284 0 17.7621 1.11882 20.0021 3.35644C22.2421 5.59407 23.3603 8.32711 23.3567 11.5556C23.3567 12.8593 23.1493 14.0889 22.7345 15.2444C22.3197 16.4 21.7567 17.4222 21.0456 18.3111L32.2456 29.5111L29.7567 32ZM11.8012 19.5556C14.0234 19.5556 15.9126 18.7781 17.4687 17.2231C19.0249 15.6681 19.8023 13.779 19.8012 11.5556C19.8 9.33215 19.0225 7.44356 17.4687 5.88978C15.9149 4.336 14.0258 3.55793 11.8012 3.55556C9.57657 3.55319 7.68798 4.33126 6.13539 5.88978C4.58279 7.4483 3.80472 9.33689 3.80116 11.5556C3.79761 13.7742 4.57568 15.6634 6.13539 17.2231C7.69509 18.7828 9.58368 19.5603 11.8012 19.5556Z" fill="#222222"/>
</svg>
