<svg xmlns="http://www.w3.org/2000/svg" width="20" height="20" viewBox="0 0 20 20" fill="none">
<path d="M18.4444 20L11.4444 13C10.8889 13.4444 10.25 13.7963 9.52778 14.0556C8.80556 14.3148 8.03704 14.4444 7.22222 14.4444C5.2037 14.4444 3.49556 13.7452 2.09778 12.3467C0.700001 10.9481 0.000741329 9.24 5.8789e-07 7.22222C-0.000740153 5.20444 0.698519 3.4963 2.09778 2.09778C3.49704 0.699259 5.20519 0 7.22222 0C9.23926 0 10.9478 0.699259 12.3478 2.09778C13.7478 3.4963 14.4467 5.20444 14.4444 7.22222C14.4444 8.03704 14.3148 8.80556 14.0556 9.52778C13.7963 10.25 13.4444 10.8889 13 11.4444L20 18.4444L18.4444 20ZM7.22222 12.2222C8.61111 12.2222 9.79185 11.7363 10.7644 10.7644C11.737 9.79259 12.223 8.61185 12.2222 7.22222C12.2215 5.83259 11.7356 4.65222 10.7644 3.68111C9.79333 2.71 8.61259 2.2237 7.22222 2.22222C5.83185 2.22074 4.65148 2.70704 3.68111 3.68111C2.71074 4.65519 2.22445 5.83556 2.22222 7.22222C2.22 8.60889 2.7063 9.78963 3.68111 10.7644C4.65593 11.7393 5.8363 12.2252 7.22222 12.2222Z" fill="#222222"/>
</svg>