<svg width="47" height="45" viewBox="0 0 47 45" fill="none" xmlns="http://www.w3.org/2000/svg">
<path d="M37.7353 36C35.1644 36 33.103 38.0025 33.103 40.5C33.103 41.6935 33.591 42.8381 34.4598 43.682C35.3285 44.5259 36.5068 45 37.7353 45C38.9639 45 40.1422 44.5259 41.0109 43.682C41.8796 42.8381 42.3677 41.6935 42.3677 40.5C42.3677 39.3065 41.8796 38.1619 41.0109 37.318C40.1422 36.4741 38.9639 36 37.7353 36ZM0.676514 0V4.5H5.30887L13.6471 21.5775L10.4971 27.09C10.1497 27.72 9.94122 28.4625 9.94122 29.25C9.94122 30.4435 10.4293 31.5881 11.298 32.432C12.1667 33.2759 13.345 33.75 14.5736 33.75H42.3677V29.25H15.5464C15.3928 29.25 15.2455 29.1907 15.1369 29.0852C15.0283 28.9798 14.9673 28.8367 14.9673 28.6875C14.9673 28.575 14.9905 28.485 15.0368 28.4175L17.1214 24.75H34.3769C36.114 24.75 37.6427 23.805 38.4302 22.4325L46.7221 7.875C46.8842 7.515 47 7.1325 47 6.75C47 6.15326 46.756 5.58097 46.3217 5.15901C45.8873 4.73705 45.2982 4.5 44.6839 4.5H10.4276L8.25041 0M14.5736 36C12.0026 36 9.94122 38.0025 9.94122 40.5C9.94122 41.6935 10.4293 42.8381 11.298 43.682C12.1667 44.5259 13.345 45 14.5736 45C15.8021 45 16.9804 44.5259 17.8491 43.682C18.7179 42.8381 19.2059 41.6935 19.2059 40.5C19.2059 39.3065 18.7179 38.1619 17.8491 37.318C16.9804 36.4741 15.8021 36 14.5736 36Z" fill="#222222"/>
</svg>
