<svg width="26" height="28" viewBox="0 0 26 28" fill="none" xmlns="http://www.w3.org/2000/svg">
<path d="M13 1.03711C6.375 1.03711 1 4.86324 1 9.57562C1 14.9979 9 23.5906 11.9375 26.5585C12.0594 26.6838 12.2192 26.7858 12.4039 26.8561C12.5886 26.9264 12.7928 26.963 13 26.963C13.2072 26.963 13.4115 26.9264 13.5961 26.8561C13.7808 26.7858 13.9406 26.6838 14.0625 26.5585C17 23.5919 25 15.0023 25 9.57562C25 4.86324 19.625 1.03711 13 1.03711Z" stroke="white" stroke-width="2" stroke-linecap="round" stroke-linejoin="round"/>
<path d="M13 13.0037C15.2091 13.0037 17 11.6643 17 10.0121C17 8.35989 15.2091 7.02051 13 7.02051C10.7909 7.02051 9 8.35989 9 10.0121C9 11.6643 10.7909 13.0037 13 13.0037Z" stroke="white" stroke-width="2" stroke-linecap="round" stroke-linejoin="round"/>
</svg>
