<svg width="24" height="24" viewBox="0 0 24 24" fill="none" xmlns="http://www.w3.org/2000/svg">
<path d="M6.36885 0.366749L4.95942 0.684307C3.70445 0.967357 2.58371 1.51264 1.7291 2.25598C0.874503 2.99932 0.32161 3.90977 0.135499 4.88018C-0.448325 7.9205 0.856924 11.4754 4.00407 15.5522C7.14335 19.6187 10.5991 22.2385 14.4028 23.3852C15.625 23.7536 16.9629 23.8518 18.2574 23.6681C19.552 23.4843 20.7488 23.0264 21.7055 22.3488L22.771 21.5931C23.4628 21.1034 23.8934 20.4425 23.9827 19.7332C24.072 19.0239 23.8139 18.3145 23.2565 17.7368L20.591 14.9729C20.2306 14.5998 19.7231 14.3203 19.1397 14.1737C18.5563 14.0272 17.9262 14.0208 17.3377 14.1555L13.3059 15.0773L13.2017 15.092C12.7575 15.1405 11.7314 14.4216 10.4536 12.7662C9.11695 11.0343 8.84175 10.0214 9.20934 9.75968L11.2596 8.3292C12.0086 7.80613 12.5202 7.12102 12.7229 6.36973C12.9256 5.61844 12.8091 4.83857 12.3899 4.13921L11.0886 1.97659C10.6973 1.32581 10.0029 0.803653 9.13489 0.507463C8.26688 0.211274 7.28252 0.161261 6.36885 0.366749ZM9.29976 2.57936L10.5971 4.74198C10.8489 5.16145 10.9191 5.62928 10.7979 6.08005C10.6766 6.53081 10.37 6.94196 9.92093 7.25598L7.86477 8.68793C6.54773 9.62002 6.98412 11.2107 8.75329 13.5013C10.4163 15.6565 11.9338 16.721 13.5654 16.5357L13.8092 16.4975L17.9136 15.561C18.1098 15.5159 18.3199 15.5179 18.5145 15.5667C18.7092 15.6155 18.8785 15.7086 18.9987 15.833L21.6642 18.5969C21.9434 18.8857 22.0727 19.2405 22.0282 19.5953C21.9838 19.9501 21.7685 20.2808 21.4225 20.5258L20.3551 21.2814C19.6717 21.7651 18.817 22.092 17.8925 22.2231C16.968 22.3541 16.0127 22.284 15.14 22.0209C11.8021 21.0153 8.64714 18.6234 5.70836 14.8171C2.76172 11.002 1.56852 7.75731 2.08158 5.08894C2.21439 4.39565 2.60929 3.74518 3.21978 3.2141C3.83027 2.68302 4.63094 2.29345 5.52751 2.09126L6.93695 1.7737C7.3939 1.67101 7.88519 1.69612 8.31921 1.84436C8.75323 1.99259 9.10035 2.25383 9.29583 2.57936" fill="white"/>
</svg>
